# xmcd
#
# Track frame offsets: 
#        150
#        27527
#        69550
#        100797
#        138012
#        172145
#        202427
#
# Disc length: 3480 seconds
#
# Revision: 1
# Processed by: cddbd v1.5.1PL2 Copyright (c) Steve Scherf et al.
# Submitted via: ExactAudioCopy v0.95a5
#
DISCID=680d9607
DTITLE=Hod O'Brien - Blues Alley - Second Set
DYEAR=2004
DGENRE=Jazz
TTITLE0=Pent-Up House
TTITLE1=Snibor
TTITLE2=How About You
TTITLE3=Little Niles
TTITLE4=Love Letters
TTITLE5=In A Sentimental Mood
TTITLE6=Do Nothing Till You Hear From Me/Take The A Train
EXTD=
EXTT0=
EXTT1=
EXTT2=
EXTT3=
EXTT4=
EXTT5=
EXTT6=
PLAYORDER=
